<mxfile host="app.diagrams.net" modified="2024-02-07T04:08:15.481Z" agent="Mozilla/5.0 (Macintosh; Intel Mac OS X 10_15_7) AppleWebKit/605.1.15 (KHTML, like Gecko) Version/17.3 Safari/605.1.15" version="23.1.1" etag="JvHmvUr1fCdH2jHEmzBk" type="github">
  <diagram name="第 1 页" id="pleppY7AtsaskfGSe5FH">
    <mxGraphModel>
      <root>
        <mxCell id="0" />
        <mxCell id="1" parent="0" />
      </root>
    </mxGraphModel>
  </diagram>
</mxfile>
